<?xml version="1.0" encoding="UTF-8" standalone="no"?>
<svg
   width="600"
   height="600"
   viewBox="0 0 600 600"
   fill="none"
   version="1.1"
   id="svg4"
   sodipodi:docname="LollyIcon.svg"
   inkscape:version="1.1.2 (b8e25be833, 2022-02-05)"
   inkscape:export-filename="C:\Users\mkbsr\Downloads\Lolly Final\Lolly Final\Lolly favicon\LollyFavicon.png"
   inkscape:export-xdpi="81.919998"
   inkscape:export-ydpi="81.919998"
   xmlns:inkscape="http://www.inkscape.org/namespaces/inkscape"
   xmlns:sodipodi="http://sodipodi.sourceforge.net/DTD/sodipodi-0.dtd"
   xmlns="http://www.w3.org/2000/svg"
   xmlns:svg="http://www.w3.org/2000/svg">
  <defs
     id="defs8" />
  <sodipodi:namedview
     id="namedview6"
     pagecolor="#ffffff"
     bordercolor="#666666"
     borderopacity="1.0"
     inkscape:pageshadow="2"
     inkscape:pageopacity="0.0"
     inkscape:pagecheckerboard="0"
     showgrid="false"
     inkscape:zoom="0.17517921"
     inkscape:cx="-1335.775"
     inkscape:cy="1021.8108"
     inkscape:window-width="1920"
     inkscape:window-height="986"
     inkscape:window-x="-11"
     inkscape:window-y="-11"
     inkscape:window-maximized="1"
     inkscape:current-layer="svg4" />
  <path
     fill-rule="evenodd"
     clip-rule="evenodd"
     d="M 216.40521,68.541995 C 171.54152,94.831169 118.15613,126.04884 97.76649,137.91539 l -37.07214,21.57676 v 140.10534 140.10693 l 32.2576,18.69989 c 17.74506,10.28914 34.17204,18.70188 36.50422,18.70188 2.87167,0 4.26705,-44.53087 4.3035,-137.57971 l 0.0609,-137.58191 78.01764,-45.60765 c 42.9128,-25.08243 80.77236,-46.66339 84.13065,-47.95144 5.39489,-2.07504 34.59818,13.7826 144.90906,78.68409 l 25.27629,14.875 0.0741,137.58191 c 0.0361,77.85944 1.63809,137.57971 3.68671,137.57971 1.99254,0 18.41952,-8.36469 36.50463,-18.58774 l 32.886,-18.58574 V 299.77571 159.61852 L 501.78769,137.67489 C 348.94449,48.28192 301.04331,20.553755 299.61549,20.643438 c -0.90515,0.05298 -38.35098,21.609382 -83.21028,47.898557 z m -39.22589,141.739015 -15.1898,10.37465 1.06676,139.24484 1.06676,139.23983 44.61638,26.07731 c 24.53894,14.34031 55.05232,32.38736 67.80861,40.10722 l 23.19563,14.03192 68.06492,-40.05515 68.06894,-40.05917 1.15947,-39.58656 1.15949,-39.58255 -18.59175,-9.0796 -18.59374,-9.07758 -18.05707,9.62429 c -17.00371,9.06557 -18.05705,10.63157 -18.05705,26.82425 0,17.16593 -0.0661,17.23401 -32.21314,36.31639 l -32.21315,19.1144 -32.68374,-19.08637 -32.68335,-19.08638 V 338.10266 220.58217 l -15.13713,-10.3378 c -18.88892,-12.89808 -23.85346,-12.89388 -42.78704,0.0366 z"
     fill="#000000"
     id="path2"
     style="stroke-width:2.00256" />
</svg>
